<svg id="icon" xmlns="http://www.w3.org/2000/svg" viewBox="0 0 32 32">
  <path fill="currentColor" d="M25 22h-9c-.6 0-1 .4-1 1s.4 1 1 1h9c.6 0 1-.4 1-1s-.4-1-1-1z"/>
  <path fill="currentColor" d="M32 13.9c0-.1 0-.2-.1-.2 0-.1 0-.1-.1-.2L28 6.7V3c0-.6-.4-1-1-1H5c-.6 0-1 .4-1 1v3.7L.1 13.5c0 .1 0 .1-.1.2 0 .1 0 .1-.1.2v.7c.1 2 1.3 3.8 3 4.7V29c0 .6.4 1 1 1h24c.6 0 1-.4 1-1v-9.7c.6-.3 1.1-.7 1.6-1.2 1.1-1.2 1.6-2.6 1.5-4.2zM26 4v2H6V4h20zm-6 10.1c.1 2-1.4 3.8-3.5 3.9h-.6c-2 .1-3.8-1.4-3.9-3.5V14l.9-6h6.3l.8 6.1zm-18 .2L5.6 8h5.3l-.9 5.9v.1c.1 2.1-1.4 3.8-3.5 3.9h-.6c-2 .1-3.8-1.4-3.9-3.6zM11 28H9v-4h2v4zm16 0H13v-5c0-.6-.4-1-1-1H8c-.6 0-1 .4-1 1v5H5v-8.1c.2.1.5.1.7.1H6.6c1.8-.1 3.4-1.1 4.4-2.5 1 1.5 2.8 2.5 4.7 2.5H16.6c1.5-.1 2.9-.8 3.9-1.9.2-.2.3-.4.4-.6 1 1.5 2.8 2.5 4.7 2.5H26.5c.1 0 .2 0 .4-.1V28h.1zm-.5-10h-.6c-2.1.1-3.8-1.4-3.9-3.5V14l-.8-6h5.3l3.6 6.3c0 .9-.3 1.8-.9 2.5-.8.7-1.7 1.1-2.7 1.2z"/>
</svg>
